<svg width="215" height="215" viewBox="0 0 215 215" fill="none" xmlns="http://www.w3.org/2000/svg">
<ellipse cx="103.719" cy="106.775" rx="84.5295" ry="81.3882" fill="url(#paint0_linear_79_2)"/>
<path d="M126.907 1.10001H84.3175C80.6724 1.10001 77.7175 4.05493 77.7175 7.70001V82.5946C77.7175 86.2397 74.7626 89.1946 71.1175 89.1946H7.69998C4.0549 89.1946 1.09998 92.1495 1.09998 95.7946V121.27C1.09998 124.915 4.0549 127.87 7.69998 127.87H71.1175C74.7626 127.87 77.7175 130.825 77.7175 134.47V206.5C77.7175 210.145 80.6725 213.1 84.3175 213.1H126.907C130.552 213.1 133.507 210.145 133.507 206.5V134.47C133.507 130.825 136.462 127.87 140.107 127.87H206.5C210.145 127.87 213.1 124.915 213.1 121.27V95.7946C213.1 92.1495 210.145 89.1946 206.5 89.1946H140.107C136.462 89.1946 133.507 86.2397 133.507 82.5946V7.70001C133.507 4.05493 130.552 1.10001 126.907 1.10001Z" fill="url(#paint1_linear_79_2)" stroke="black" stroke-width="2.2"/>
<path d="M66.804 104.193L57.6748 94.426L62.7466 88.5661L65.7896 89.5427L71.8758 82.7061L68.8327 79.7762L77.9619 72.9396L79.9906 74.8929C79.9906 74.8929 85.3996 68.2739 89.1198 67.0797C91.1485 66.4284 96.2203 64.8387 102.306 67.0796C106.006 68.4419 110.421 72.9396 110.421 72.9396C110.421 72.9396 101.331 72.7838 96.2203 74.8926C89.1198 77.8226 71.8758 97.356 71.8758 97.356L72.8901 98.3327L66.804 104.193Z" fill="#F9E207"/>
<path d="M97.2346 107.123L82.0193 92.4727L90.1341 84.6595L106.364 99.3093L122.593 83.6828C122.593 83.6828 121.444 76.6012 123.608 72.9396C124.993 70.5954 126.148 69.2108 128.68 68.0563C131.902 66.5868 137.809 68.0563 137.809 68.0563L128.68 75.8695L140.852 87.5894L148.967 78.7995C148.967 78.7995 150.585 84.5308 148.967 87.5894C147.562 90.2437 145.672 91.1875 142.881 92.4727C138.933 94.2904 131.723 93.4494 131.723 93.4494L116.507 109.076L146.938 137.399L136.794 147.166L106.364 116.889L92.1628 130.562C92.1628 130.562 94.5426 136.728 93.1772 140.329C92.116 143.127 90.736 144.621 88.1054 146.189C84.3852 148.406 76.9475 147.166 76.9475 147.166L85.0624 138.376L73.9045 127.632L64.7753 136.422C64.7753 136.422 64.7057 129.98 66.804 126.656C68.2589 124.351 69.3704 122.979 71.8758 121.772C75.4189 120.067 82.0193 121.772 82.0193 121.772L97.2346 107.123Z" fill="#F9E207"/>
<path d="M79.9906 74.8929C79.9906 74.8929 85.3996 68.2739 89.1198 67.0797C91.1485 66.4284 96.2203 64.8387 102.306 67.0796C106.006 68.4419 110.421 72.9396 110.421 72.9396C110.421 72.9396 101.331 72.7838 96.2203 74.8926C89.1198 77.8226 71.8758 97.356 71.8758 97.356L72.8901 98.3327L66.804 104.193L57.6748 94.426L62.7466 88.5661L65.7896 89.5427L71.8758 82.7061M79.9906 74.8929L77.9619 72.9396L68.8327 79.7762L71.8758 82.7061M79.9906 74.8929L71.8758 82.7061M82.0193 92.4727L97.2346 107.123L82.0193 121.772C82.0193 121.772 75.4189 120.067 71.8758 121.772C69.3704 122.979 68.2589 124.351 66.804 126.656C64.7057 129.98 64.7753 136.422 64.7753 136.422L73.9045 127.632L85.0624 138.376L76.9475 147.166C76.9475 147.166 84.3852 148.406 88.1054 146.189C90.736 144.621 92.116 143.127 93.1772 140.329C94.5426 136.728 92.1628 130.562 92.1628 130.562L106.364 116.889L136.794 147.166L146.938 137.399L116.507 109.076L131.723 93.4494C131.723 93.4494 138.933 94.2904 142.881 92.4727C145.672 91.1875 147.562 90.2437 148.967 87.5894C150.585 84.5308 148.967 78.7995 148.967 78.7995L140.852 87.5894L128.68 75.8695L137.809 68.0563C137.809 68.0563 131.902 66.5868 128.68 68.0563C126.148 69.2108 124.993 70.5954 123.608 72.9396C121.444 76.6012 122.593 83.6828 122.593 83.6828L106.364 99.3093L90.1341 84.6595L82.0193 92.4727Z" stroke="black" stroke-width="1.2"/>
<defs>
<linearGradient id="paint0_linear_79_2" x1="103.719" y1="25.3863" x2="103.719" y2="188.163" gradientUnits="userSpaceOnUse">
<stop stop-color="#51FFE7"/>
<stop offset="1" stop-color="#1FB8B3"/>
</linearGradient>
<linearGradient id="paint1_linear_79_2" x1="107.1" y1="1.10001" x2="107.1" y2="213.1" gradientUnits="userSpaceOnUse">
<stop offset="0.475962" stop-color="#7CE62E"/>
<stop offset="0.576923" stop-color="#B3F243"/>
</linearGradient>
</defs>
</svg>
