<svg width="180" height="173" viewBox="0 0 180 173" fill="none" xmlns="http://www.w3.org/2000/svg">
<path d="M89.5293 2.5C137.504 2.5 176.559 39.9701 176.559 86.3887C176.558 132.807 137.504 170.276 89.5293 170.276C41.5546 170.276 2.50026 132.807 2.5 86.3887C2.5 39.9702 41.5544 2.50011 89.5293 2.5Z" fill="url(#paint0_linear_96_53)" stroke="white" stroke-width="5"/>
<path d="M89.5293 8.5C134.407 8.5 170.559 43.4959 170.559 86.3887C170.558 129.281 134.407 164.276 89.5293 164.276C44.6521 164.276 8.50026 129.281 8.5 86.3887C8.5 43.496 44.6519 8.50011 89.5293 8.5Z" fill="url(#paint1_linear_96_53)" stroke="black" stroke-width="7"/>
<g filter="url(#filter0_d_96_53)">
<path fill-rule="evenodd" clip-rule="evenodd" d="M99.92 38.71C100.355 39.555 100.465 40.64 100.68 42.81C101.09 46.91 101.295 48.96 102.155 50.09C102.691 50.7916 103.403 51.3388 104.219 51.6761C105.035 52.0133 105.925 52.1285 106.8 52.01C108.2 51.825 109.8 50.52 112.99 47.91C114.675 46.525 115.52 45.835 116.425 45.545C117.578 45.1767 118.825 45.2389 119.935 45.72C120.81 46.1 121.585 46.87 123.12 48.41L127.59 52.88C129.13 54.42 129.9 55.19 130.28 56.065C130.761 57.1753 130.823 58.4224 130.455 59.575C130.165 60.48 129.475 61.325 128.095 63.01C125.48 66.205 124.175 67.8 123.985 69.205C123.868 70.0795 123.984 70.9694 124.322 71.7843C124.661 72.5992 125.208 73.3102 125.91 73.845C127.035 74.705 129.09 74.91 133.195 75.32C135.36 75.535 136.445 75.645 137.295 76.08C138.367 76.636 139.202 77.5613 139.645 78.685C140 79.57 140 80.66 140 82.84V89.16C140 91.34 140 92.43 139.65 93.31C139.206 94.4372 138.367 95.3647 137.29 95.92C136.445 96.355 135.36 96.465 133.19 96.68C129.09 97.09 127.04 97.295 125.91 98.155C125.208 98.6908 124.661 99.4028 124.324 100.219C123.987 101.035 123.871 101.925 123.99 102.8C124.18 104.2 125.485 105.8 128.095 108.99C129.475 110.675 130.165 111.515 130.455 112.425C130.823 113.578 130.761 114.825 130.28 115.935C129.9 116.81 129.13 117.58 127.59 119.12L123.12 123.585C121.58 125.13 120.81 125.9 119.935 126.275C118.825 126.756 117.578 126.818 116.425 126.45C115.52 126.16 114.675 125.47 112.99 124.09C109.795 121.48 108.2 120.175 106.8 119.99C105.925 119.871 105.035 119.987 104.219 120.324C103.403 120.661 102.691 121.208 102.155 121.91C101.295 123.035 101.09 125.085 100.68 129.19C100.465 131.36 100.355 132.445 99.92 133.29C99.3659 134.366 98.4403 135.205 97.315 135.65C96.43 136 95.34 136 93.16 136H86.84C84.66 136 83.57 136 82.69 135.65C81.5628 135.206 80.6353 134.367 80.08 133.29C79.645 132.445 79.535 131.36 79.32 129.19C78.91 125.09 78.705 123.04 77.845 121.91C77.3096 121.209 76.5984 120.662 75.7835 120.325C74.9686 119.988 74.079 119.872 73.205 119.99C71.8 120.175 70.205 121.48 67.01 124.09C65.325 125.475 64.48 126.165 63.575 126.455C62.4224 126.823 61.1753 126.761 60.065 126.28C59.19 125.9 58.415 125.13 56.88 123.59L52.41 119.12C50.87 117.58 50.1 116.81 49.72 115.935C49.2389 114.825 49.1767 113.578 49.545 112.425C49.835 111.52 50.525 110.675 51.905 108.99C54.52 105.795 55.825 104.2 56.01 102.795C56.1276 101.921 56.0119 101.031 55.6747 100.216C55.3375 99.4016 54.7908 98.6904 54.09 98.155C52.965 97.295 50.91 97.09 46.805 96.68C44.64 96.465 43.555 96.355 42.705 95.92C41.6327 95.364 40.798 94.4387 40.355 93.315C40 92.43 40 91.34 40 89.16V82.84C40 80.66 40 79.57 40.35 78.69C40.7944 77.5628 41.6331 76.6353 42.71 76.08C43.555 75.645 44.64 75.535 46.81 75.32C50.91 74.91 52.965 74.705 54.09 73.845C54.7917 73.3102 55.3394 72.5992 55.6775 71.7843C56.0156 70.9694 56.132 70.0795 56.015 69.205C55.825 67.8 54.515 66.205 51.905 63.005C50.525 61.32 49.835 60.48 49.545 59.57C49.1767 58.4174 49.2389 57.1703 49.72 56.06C50.1 55.19 50.87 54.415 52.41 52.875L56.88 48.41C58.42 46.87 59.19 46.095 60.065 45.72C61.1753 45.2389 62.4224 45.1767 63.575 45.545C64.48 45.835 65.325 46.525 67.01 47.905C70.205 50.515 71.8 51.82 73.2 52.01C74.0761 52.1289 74.968 52.0134 75.7849 51.6752C76.6017 51.337 77.3143 50.7883 77.85 50.085C78.7 48.96 78.91 46.91 79.32 42.805C79.535 40.64 79.645 39.555 80.08 38.705C80.635 37.6309 81.5605 36.7942 82.685 36.35C83.57 36 84.66 36 86.84 36H93.16C95.34 36 96.43 36 97.31 36.35C98.4372 36.7944 99.3647 37.6331 99.92 38.71ZM90 106C95.3043 106 100.391 103.893 104.142 100.142C107.893 96.3914 110 91.3043 110 86C110 80.6957 107.893 75.6086 104.142 71.8579C100.391 68.1071 95.3043 66 90 66C84.6957 66 79.6086 68.1071 75.8579 71.8579C72.1071 75.6086 70 80.6957 70 86C70 91.3043 72.1071 96.3914 75.8579 100.142C79.6086 103.893 84.6957 106 90 106Z" fill="url(#paint2_linear_96_53)"/>
<path d="M86.8398 37H93.1602C94.2634 37 95.0423 37.001 95.6562 37.042C96.2603 37.0824 96.6368 37.1585 96.9404 37.2793L96.9434 37.2803C97.7886 37.6136 98.4935 38.224 98.9443 39.0088L99.0312 39.168C99.1823 39.4616 99.2962 39.8313 99.3965 40.4287C99.4984 41.0359 99.5759 41.8109 99.6846 42.9082V42.9092C99.8879 44.9424 100.046 46.527 100.265 47.7412C100.482 48.9461 100.781 49.9355 101.359 50.6953L101.36 50.6973C102.003 51.5391 102.858 52.1959 103.837 52.6006C104.816 53.0051 105.884 53.1421 106.934 53C107.877 52.8746 108.789 52.3884 109.794 51.6914C110.808 50.9879 112.041 49.9782 113.623 48.6836L113.625 48.6826C115.379 47.241 116.052 46.7144 116.73 46.4971L116.729 46.4961C117.594 46.2201 118.525 46.248 119.369 46.5693L119.537 46.6377C120.194 46.9232 120.816 47.5151 122.412 49.1162L126.883 53.5869C127.662 54.3661 128.212 54.9165 128.617 55.3799C128.916 55.7216 129.111 55.989 129.246 56.2295L129.362 56.4629C129.747 57.3507 129.797 58.3478 129.503 59.2695C129.402 59.584 129.221 59.9264 128.869 60.4199C128.512 60.9212 128.019 61.5238 127.321 62.376V62.377C126.025 63.9614 125.014 65.1943 124.31 66.208C123.61 67.2139 123.122 68.1256 122.994 69.0713V69.0723C122.854 70.1216 122.993 71.19 123.398 72.168C123.753 73.0235 124.302 73.7831 124.997 74.3896L125.304 74.6406C126.062 75.2198 127.053 75.5186 128.258 75.7354C129.169 75.8993 130.29 76.0295 131.652 76.1699L133.096 76.3154C135.343 76.5386 136.195 76.6412 136.835 76.9668V76.9678C137.639 77.3847 138.276 78.0613 138.645 78.8848L138.715 79.0518L138.717 79.0576C138.839 79.3634 138.917 79.741 138.958 80.3447C139 80.9587 139 81.7367 139 82.8398V89.1602C139 90.2634 138.999 91.0423 138.958 91.6562C138.918 92.2603 138.841 92.6368 138.721 92.9404L138.72 92.9434C138.386 93.7886 137.776 94.4935 136.991 94.9443L136.832 95.0312C136.538 95.1823 136.169 95.2962 135.571 95.3965C134.964 95.4984 134.189 95.5759 133.092 95.6846H133.091C131.058 95.8879 129.473 96.046 128.259 96.2646C127.054 96.4816 126.065 96.7812 125.305 97.3594L125.303 97.3604C124.461 98.0033 123.804 98.858 123.399 99.8369C122.995 100.816 122.857 101.885 122.999 102.935C123.127 103.877 123.615 104.789 124.313 105.794C125.018 106.808 126.027 108.041 127.321 109.623V109.624C128.02 110.477 128.513 111.078 128.87 111.579C129.221 112.071 129.401 112.413 129.502 112.729L129.503 112.729C129.779 113.594 129.752 114.524 129.431 115.369L129.362 115.537C129.23 115.842 129.016 116.165 128.617 116.62C128.212 117.083 127.662 117.633 126.883 118.412L122.413 122.878L122.412 122.879C121.633 123.661 121.083 124.211 120.62 124.616C120.165 125.014 119.843 125.226 119.541 125.355L119.537 125.357C118.649 125.742 117.651 125.792 116.729 125.497C116.415 125.396 116.073 125.215 115.58 124.864C115.079 124.507 114.476 124.014 113.624 123.316L113.623 123.315L112.498 122.398C111.435 121.536 110.552 120.837 109.792 120.31C108.788 119.613 107.878 119.124 106.934 118.999H106.935C105.885 118.857 104.816 118.995 103.837 119.399C102.98 119.753 102.219 120.301 101.611 120.996L101.36 121.303C100.781 122.061 100.482 123.05 100.265 124.255C100.046 125.469 99.8879 127.055 99.6846 129.091V129.092C99.5759 130.189 99.4984 130.964 99.3965 131.571C99.2962 132.169 99.1823 132.538 99.0312 132.832C98.5881 133.693 97.8473 134.363 96.9473 134.72C96.6401 134.841 96.261 134.918 95.6562 134.958C95.0417 134.999 94.2632 135 93.1602 135H86.8398C85.7366 135 84.9577 134.999 84.3438 134.958C83.7397 134.918 83.3632 134.841 83.0596 134.721L83.0566 134.72L82.8896 134.649C82.1186 134.304 81.4765 133.724 81.0557 132.991L80.9688 132.832C80.8177 132.538 80.7038 132.169 80.6035 131.571C80.5016 130.964 80.4241 130.189 80.3154 129.092V129.091C80.1121 127.058 79.954 125.473 79.7354 124.259C79.5184 123.054 79.2188 122.065 78.6406 121.305L78.6396 121.303C77.9972 120.462 77.1438 119.806 76.166 119.401C75.3104 119.047 74.3861 118.897 73.4658 118.959L73.0713 118.999C72.1252 119.124 71.2136 119.612 70.209 120.309C69.1952 121.012 67.9612 122.021 66.377 123.315L66.375 123.317C64.8407 124.579 64.1334 125.139 63.5264 125.405L63.2695 125.503C62.4055 125.779 61.4752 125.752 60.6309 125.431L60.4629 125.362C59.8058 125.077 59.1838 124.485 57.5879 122.884L53.1172 118.413C52.338 117.634 51.7882 117.083 51.3828 116.62C51.0839 116.278 50.8887 116.011 50.7539 115.771L50.6377 115.537C50.253 114.649 50.2028 113.652 50.4971 112.73C50.5978 112.416 50.7792 112.074 51.1309 111.58C51.4881 111.079 51.9808 110.476 52.6787 109.624V109.623C53.9754 108.039 54.9863 106.806 55.6904 105.792C56.3884 104.787 56.8756 103.875 57.001 102.929C57.1421 101.88 57.0033 100.812 56.5986 99.834C56.2446 98.9785 55.6982 98.2184 55.0039 97.6113L54.6973 97.3604C53.9389 96.7807 52.9477 96.4815 51.7422 96.2646C50.8307 96.1007 49.7104 95.9704 48.3486 95.8301L46.9043 95.6846C44.6566 95.4614 43.8046 95.358 43.165 95.0322C42.361 94.6153 41.724 93.9387 41.3555 93.1152L41.2852 92.9482L41.2832 92.9424L41.1992 92.6973C41.1238 92.4338 41.0726 92.1081 41.042 91.6553C41.0005 91.0413 41 90.2633 41 89.1602V82.8398C41 81.7366 41.001 80.9577 41.042 80.3438C41.0824 79.7397 41.1585 79.3632 41.2793 79.0596L41.2803 79.0566C41.6136 78.2114 42.224 77.5065 43.0088 77.0557L43.168 76.9688C43.4616 76.8177 43.8313 76.7038 44.4287 76.6035C45.0359 76.5016 45.8109 76.4241 46.9082 76.3154H46.9092C48.9423 76.1121 50.5284 75.954 51.7432 75.7354C52.9473 75.5186 53.9381 75.2197 54.6963 74.6406C55.5383 73.9989 56.1958 73.1458 56.6016 72.168C57.0073 71.1901 57.1463 70.1216 57.0059 69.0723V69.0713L56.9775 68.8936C56.8156 68.0101 56.3439 67.1497 55.6885 66.207C54.9837 65.1934 53.9734 63.9592 52.6797 62.373L52.6787 62.3711L51.7764 61.2617C51.5213 60.9421 51.3086 60.6665 51.1299 60.416C50.7788 59.9239 50.5988 59.5825 50.498 59.2666L50.4971 59.2656L50.4463 59.0918C50.2106 58.22 50.2767 57.2921 50.6367 56.46C50.9225 55.8059 51.5152 55.184 53.1172 53.582L57.5869 49.1172C58.367 48.3371 58.9173 47.786 59.3809 47.3799C59.8368 46.9804 60.1577 46.7678 60.459 46.6387L60.4629 46.6377C61.3506 46.2531 62.3479 46.202 63.2695 46.4961V46.4971C63.584 46.5978 63.9264 46.7792 64.4199 47.1309C64.9212 47.4881 65.5238 47.9808 66.376 48.6787L66.377 48.6797C67.9612 49.9739 69.1943 50.9827 70.207 51.6865C71.2116 52.3846 72.1222 52.8729 73.0654 53.001C74.1165 53.1436 75.1869 53.0053 76.167 52.5996C77.1472 52.1938 78.0017 51.5343 78.6445 50.6904L78.6455 50.6914L78.6475 50.6875C79.2192 49.9308 79.5175 48.9435 79.7344 47.7393C79.8983 46.8289 80.0282 45.71 80.1689 44.3486L80.3154 42.9043C80.5388 40.6548 80.6414 39.8028 80.9678 39.1631L80.9688 39.1641C81.385 38.3585 82.0616 37.7201 82.8857 37.3506L83.0527 37.2803C83.3599 37.1588 83.739 37.0823 84.3438 37.042C84.9583 37.001 85.7368 37 86.8398 37ZM90 65C84.4305 65 79.0887 67.2121 75.1504 71.1504C71.2121 75.0887 69 80.4305 69 86C69 91.5695 71.2121 96.9113 75.1504 100.85C79.0887 104.788 84.4305 107 90 107C95.5695 107 100.911 104.788 104.85 100.85C108.788 96.9113 111 91.5695 111 86C111 80.4305 108.788 75.0887 104.85 71.1504C100.911 67.2121 95.5695 65 90 65Z" stroke="black" stroke-width="2"/>
</g>
<defs>
<filter id="filter0_d_96_53" x="36" y="36" width="108" height="108" filterUnits="userSpaceOnUse" color-interpolation-filters="sRGB">
<feFlood flood-opacity="0" result="BackgroundImageFix"/>
<feColorMatrix in="SourceAlpha" type="matrix" values="0 0 0 0 0 0 0 0 0 0 0 0 0 0 0 0 0 0 127 0" result="hardAlpha"/>
<feOffset dy="4"/>
<feGaussianBlur stdDeviation="2"/>
<feComposite in2="hardAlpha" operator="out"/>
<feColorMatrix type="matrix" values="0 0 0 0 0 0 0 0 0 0 0 0 0 0 0 0 0 0 0.37 0"/>
<feBlend mode="normal" in2="BackgroundImageFix" result="effect1_dropShadow_96_53"/>
<feBlend mode="normal" in="SourceGraphic" in2="effect1_dropShadow_96_53" result="shape"/>
</filter>
<linearGradient id="paint0_linear_96_53" x1="89.1636" y1="5" x2="89.1636" y2="167.776" gradientUnits="userSpaceOnUse">
<stop stop-color="#BEF448"/>
<stop offset="0.310072" stop-color="#65BE1E"/>
</linearGradient>
<linearGradient id="paint1_linear_96_53" x1="89.1636" y1="5" x2="89.1636" y2="167.776" gradientUnits="userSpaceOnUse">
<stop stop-color="#BEF448"/>
<stop offset="0.310072" stop-color="#65BE1E"/>
</linearGradient>
<linearGradient id="paint2_linear_96_53" x1="83.0769" y1="76.7693" x2="83.0769" y2="136.769" gradientUnits="userSpaceOnUse">
<stop stop-color="#FFFC05"/>
<stop offset="1" stop-color="#8B6D13"/>
</linearGradient>
</defs>
</svg>
