<svg width="40" height="83" viewBox="0 0 40 83" fill="none" xmlns="http://www.w3.org/2000/svg">
<path d="M17.0165 41.5C16.9677 47.2781 16.317 52.2611 15.3539 56.5M17.0165 41.5H20.8833H22.75M17.0165 41.5C17.0525 37.2416 16.7686 33.4151 16.2761 30M14.25 7H5.04964C5.04964 7 10.7478 10.725 13.6394 19M14.25 7L19.75 19M14.25 7H20.75M19.75 19L22.25 30M19.75 19H13.6394M19.75 19H26.25M22.25 30L22.75 41.5M22.25 30H16.2761M22.25 30H28.25M22.75 41.5L20.75 56.5M22.75 41.5H28.75M20.75 56.5L13.25 76M20.75 56.5H19.0519H15.3539M20.75 56.5H26.25M13.25 76H10.1252H5.00049C5.00049 76 12.2742 70.0544 15.3539 56.5M13.25 76H18.0165M16.2761 30C15.6548 25.6923 14.7015 22.0393 13.6394 19M20.75 7L26.25 19M20.75 7H25.9404M26.25 19L28.25 30M26.25 19H31.1309M28.25 30L28.75 41.5M28.25 30H33.25M28.75 41.5L26.25 56.5M28.75 41.5H33.25M26.25 56.5L18.0165 76M26.25 56.5H31.1309M18.0165 76H23.2623M25.9404 7H31.1309C31.1309 7 33.27 12.2095 35.3177 19M25.9404 7L31.1309 19M31.1309 19L33.25 30M31.1309 19H35.3177M33.25 30V41.5M33.25 30H38.0572M33.25 41.5L31.1309 56.5M33.25 41.5H38.9055M31.1309 56.5L23.2623 76M31.1309 56.5H35.9168M23.2623 76H28.508C28.508 76 32.8212 66.9695 35.9168 56.5M35.9168 56.5C37.3791 51.5544 38.5697 46.2876 38.9055 41.5M38.9055 41.5C38.9738 40.5268 39.0068 39.5735 38.9995 38.6466C38.9785 35.9615 38.616 33.0007 38.0572 30M38.0572 30C37.3572 26.2413 36.349 22.4201 35.3177 19" stroke="black" stroke-width="2"/>
<circle cx="11.5005" cy="2.5" r="2.5" fill="#01FF40"/>
<circle cx="11.5005" cy="80.5" r="2.5" fill="#01FF40"/>
<circle cx="26.5005" cy="35.5" r="2.5" fill="#01FF40"/>
<circle cx="23.5005" cy="61.5" r="2.5" fill="#01FF40"/>
<path d="M2.00049 8C2.00049 8 15.155 14.104 15.0005 42.5C14.8608 68.169 2.00049 75 2.00049 75" stroke="#00FF21" stroke-width="4" stroke-linecap="round"/>
</svg>
