<svg width="22" height="74" viewBox="0 0 22 74" fill="none" xmlns="http://www.w3.org/2000/svg">
<rect x="3.00049" width="7" height="7" rx="3.5" fill="black"/>
<rect x="7.00049" y="3" width="7" height="7" rx="3.5" fill="black"/>
<rect x="10.0005" y="7" width="7" height="7" rx="3.5" fill="black"/>
<rect x="12.0005" y="11" width="7" height="7" rx="3.5" fill="black"/>
<rect x="13.0005" y="15" width="7" height="7" rx="3.5" fill="black"/>
<rect x="14.0005" y="19" width="7" height="7" rx="3.5" fill="black"/>
<rect x="15.0005" y="23" width="7" height="7" rx="3.5" fill="black"/>
<rect x="15.0005" y="27" width="7" height="7" rx="3.5" fill="black"/>
<rect x="15.0005" y="33" width="7" height="7" rx="3.5" fill="black"/>
<rect x="14.0005" y="42" width="7" height="7" rx="3.5" fill="black"/>
<rect x="14.0005" y="37" width="7" height="7" rx="3.5" fill="black"/>
<rect x="13.0005" y="47" width="7" height="7" rx="3.5" fill="black"/>
<rect x="12.0005" y="51" width="7" height="7" rx="3.5" fill="black"/>
<rect x="11.0005" y="56" width="7" height="7" rx="3.5" fill="black"/>
<rect x="9.00049" y="60" width="7" height="7" rx="3.5" fill="black"/>
<rect x="6.00049" y="64" width="7" height="7" rx="3.5" fill="black"/>
<rect x="3.00049" y="67" width="7" height="7" rx="3.5" fill="black"/>
<path d="M2.00049 3C2.00049 3 15.155 9.10401 15.0005 37.5C14.8608 63.169 2.00049 70 2.00049 70" stroke="#EEFF00" stroke-width="4" stroke-linecap="round"/>
</svg>
