<svg width="214" height="214" viewBox="0 0 214 214" fill="none" xmlns="http://www.w3.org/2000/svg">
<rect x="132.839" y="19.7914" width="63.622" height="69.2838" rx="3" fill="url(#paint0_linear_96_48)" stroke="black" stroke-width="2"/>
<rect x="20.1039" y="19.7914" width="58.5742" height="69.2838" rx="3" fill="url(#paint1_linear_96_48)" stroke="black" stroke-width="2"/>
<rect x="196.461" y="192.761" width="63.622" height="66.0436" rx="3" transform="rotate(-180 196.461 192.761)" fill="url(#paint2_linear_96_48)" stroke="black" stroke-width="2"/>
<rect x="80.3607" y="192.761" width="61.9394" height="66.0436" rx="3" transform="rotate(-180 80.3607 192.761)" fill="url(#paint3_linear_96_48)" stroke="black" stroke-width="2"/>
<path d="M126.282 1.09998H83.9561C80.311 1.09998 77.3561 4.0549 77.3561 7.69998V82.179C77.3561 85.8241 74.4012 88.779 70.7561 88.779H7.69998C4.0549 88.779 1.09998 91.7339 1.09998 95.379V120.672C1.09998 124.317 4.0549 127.272 7.69998 127.272H70.7561C74.4012 127.272 77.3561 130.227 77.3561 133.872V205.5C77.3561 209.145 80.311 212.1 83.9561 212.1H126.282C129.928 212.1 132.882 209.145 132.882 205.5V133.872C132.882 130.227 135.837 127.272 139.482 127.272H205.5C209.145 127.272 212.1 124.317 212.1 120.672V95.379C212.1 91.734 209.145 88.779 205.5 88.779H139.482C135.837 88.779 132.882 85.8241 132.882 82.179V7.69998C132.882 4.0549 129.928 1.09998 126.282 1.09998Z" fill="url(#paint4_linear_96_48)" stroke="black" stroke-width="2.2"/>
<path d="M56.5023 104.006L44.1 92.0354L50.9901 84.8531L55.1242 86.0501L63.3924 77.6708L59.2583 74.0797L71.6606 65.7003L74.4167 68.0944C74.4167 68.0944 81.765 59.9819 86.819 58.5182C89.575 57.72 96.4652 55.7715 104.733 58.5181C109.76 60.1878 115.758 65.7003 115.758 65.7003C115.758 65.7003 103.408 65.5095 96.4652 68.0941C86.819 71.6853 63.3924 95.6265 63.3924 95.6265L64.7705 96.8236L56.5023 104.006Z" fill="#F9E207"/>
<path d="M97.8432 107.597L77.1727 89.6413L88.197 80.0649L110.246 98.0206L132.294 78.8678C132.294 78.8678 130.733 70.1882 133.672 65.7003C135.554 62.8273 137.123 61.1302 140.562 59.7151C144.939 57.914 152.964 59.7151 152.964 59.7151L140.562 69.2915L157.099 83.656L168.123 72.8826C168.123 72.8826 170.321 79.9072 168.123 83.656C166.215 86.9093 163.646 88.066 159.855 89.6413C154.492 91.8691 144.696 90.8383 144.696 90.8383L124.026 109.991L165.367 144.705L151.586 156.676L110.246 119.567L90.9531 136.326C90.9531 136.326 94.1861 143.883 92.3311 148.297C90.8895 151.726 89.0147 153.557 85.4409 155.479C80.3869 158.197 70.2826 156.676 70.2826 156.676L81.3068 145.902L66.1485 132.735L53.7462 143.508C53.7462 143.508 53.6516 135.612 56.5023 131.538C58.4788 128.713 59.9888 127.031 63.3924 125.553C68.2058 123.462 77.1727 125.553 77.1727 125.553L97.8432 107.597Z" fill="#F9E207"/>
<path d="M74.4167 68.0944C74.4167 68.0944 81.765 59.9819 86.819 58.5182C89.575 57.72 96.4652 55.7715 104.733 58.5181C109.76 60.1878 115.758 65.7003 115.758 65.7003C115.758 65.7003 103.408 65.5095 96.4652 68.0941C86.819 71.6853 63.3924 95.6265 63.3924 95.6265L64.7705 96.8236L56.5023 104.006L44.1 92.0354L50.9901 84.8531L55.1242 86.0501L63.3924 77.6708M74.4167 68.0944L71.6606 65.7003L59.2583 74.0797L63.3924 77.6708M74.4167 68.0944L63.3924 77.6708M77.1727 89.6413L97.8432 107.597L77.1727 125.553C77.1727 125.553 68.2058 123.462 63.3924 125.553C59.9888 127.031 58.4788 128.713 56.5023 131.538C53.6516 135.612 53.7462 143.508 53.7462 143.508L66.1485 132.735L81.3068 145.902L70.2826 156.676C70.2826 156.676 80.3869 158.197 85.4409 155.479C89.0147 153.557 90.8895 151.726 92.3311 148.297C94.1861 143.883 90.9531 136.326 90.9531 136.326L110.246 119.567L151.586 156.676L165.367 144.705L124.026 109.991L144.696 90.8383C144.696 90.8383 154.492 91.8691 159.855 89.6413C163.646 88.066 166.215 86.9093 168.123 83.656C170.321 79.9072 168.123 72.8826 168.123 72.8826L157.099 83.656L140.562 69.2915L152.964 59.7151C152.964 59.7151 144.939 57.914 140.562 59.7151C137.123 61.1302 135.554 62.8273 133.672 65.7003C130.733 70.1882 132.294 78.8678 132.294 78.8678L110.246 98.0206L88.197 80.0649L77.1727 89.6413Z" stroke="black" stroke-width="1.2"/>
<defs>
<linearGradient id="paint0_linear_96_48" x1="164.65" y1="18.7914" x2="164.65" y2="90.0752" gradientUnits="userSpaceOnUse">
<stop stop-color="#51FFE7"/>
<stop offset="1" stop-color="#1FB8B3"/>
</linearGradient>
<linearGradient id="paint1_linear_96_48" x1="49.391" y1="18.7914" x2="49.391" y2="90.0752" gradientUnits="userSpaceOnUse">
<stop stop-color="#51FFE7"/>
<stop offset="1" stop-color="#1FB8B3"/>
</linearGradient>
<linearGradient id="paint2_linear_96_48" x1="230.272" y1="193.761" x2="230.272" y2="261.804" gradientUnits="userSpaceOnUse">
<stop stop-color="#51FFE7"/>
<stop offset="1" stop-color="#1FB8B3"/>
</linearGradient>
<linearGradient id="paint3_linear_96_48" x1="113.33" y1="193.761" x2="113.33" y2="261.804" gradientUnits="userSpaceOnUse">
<stop stop-color="#51FFE7"/>
<stop offset="1" stop-color="#1FB8B3"/>
</linearGradient>
<linearGradient id="paint4_linear_96_48" x1="106.6" y1="1.09998" x2="106.6" y2="212.1" gradientUnits="userSpaceOnUse">
<stop offset="0.475962" stop-color="#7CE62E"/>
<stop offset="0.576923" stop-color="#B3F243"/>
</linearGradient>
</defs>
</svg>
