<svg width="214" height="214" viewBox="0 0 214 214" fill="none" xmlns="http://www.w3.org/2000/svg">
<rect x="132.839" y="19.7914" width="63.622" height="69.2838" rx="3" fill="url(#paint0_linear_41_22)" stroke="black" stroke-width="2"/>
<rect x="20.1039" y="19.7914" width="58.5742" height="69.2838" rx="3" fill="url(#paint1_linear_41_22)" stroke="black" stroke-width="2"/>
<rect x="196.461" y="192.761" width="63.622" height="66.0436" rx="3" transform="rotate(-180 196.461 192.761)" fill="url(#paint2_linear_41_22)" stroke="black" stroke-width="2"/>
<rect x="80.3607" y="192.761" width="61.9394" height="66.0436" rx="3" transform="rotate(-180 80.3607 192.761)" fill="url(#paint3_linear_41_22)" stroke="black" stroke-width="2"/>
<path d="M126.282 1.10001H83.9561C80.311 1.10001 77.3561 4.05493 77.3561 7.70001V82.1791C77.3561 85.8241 74.4012 88.7791 70.7561 88.7791H7.69998C4.0549 88.7791 1.09998 91.734 1.09998 95.3791V120.672C1.09998 124.317 4.0549 127.272 7.69998 127.272H70.7561C74.4012 127.272 77.3561 130.227 77.3561 133.872V205.5C77.3561 209.145 80.311 212.1 83.9561 212.1H126.282C129.928 212.1 132.882 209.145 132.882 205.5V133.872C132.882 130.227 135.837 127.272 139.482 127.272H205.5C209.145 127.272 212.1 124.317 212.1 120.672V95.3791C212.1 91.734 209.145 88.7791 205.5 88.7791H139.482C135.837 88.7791 132.882 85.8241 132.882 82.1791V7.70001C132.882 4.05493 129.928 1.10001 126.282 1.10001Z" fill="url(#paint4_linear_41_22)" stroke="black" stroke-width="2.2"/>
<path d="M141.194 104.544C142.527 105.313 142.527 107.239 141.194 108.008L88.2796 138.558C86.9463 139.328 85.2786 138.365 85.2786 136.826V75.7262C85.2786 74.1867 86.9454 73.2243 88.2786 73.9938L141.194 104.544Z" fill="url(#paint5_linear_41_22)" stroke="black" stroke-width="2"/>
<defs>
<linearGradient id="paint0_linear_41_22" x1="164.65" y1="18.7914" x2="164.65" y2="90.0751" gradientUnits="userSpaceOnUse">
<stop stop-color="#51FFE7"/>
<stop offset="1" stop-color="#1FB8B3"/>
</linearGradient>
<linearGradient id="paint1_linear_41_22" x1="49.391" y1="18.7914" x2="49.391" y2="90.0751" gradientUnits="userSpaceOnUse">
<stop stop-color="#51FFE7"/>
<stop offset="1" stop-color="#1FB8B3"/>
</linearGradient>
<linearGradient id="paint2_linear_41_22" x1="230.272" y1="193.761" x2="230.272" y2="261.804" gradientUnits="userSpaceOnUse">
<stop stop-color="#51FFE7"/>
<stop offset="1" stop-color="#1FB8B3"/>
</linearGradient>
<linearGradient id="paint3_linear_41_22" x1="113.33" y1="193.761" x2="113.33" y2="261.804" gradientUnits="userSpaceOnUse">
<stop stop-color="#51FFE7"/>
<stop offset="1" stop-color="#1FB8B3"/>
</linearGradient>
<linearGradient id="paint4_linear_41_22" x1="106.6" y1="1.10001" x2="106.6" y2="212.1" gradientUnits="userSpaceOnUse">
<stop offset="0.475962" stop-color="#7CE62E"/>
<stop offset="0.576923" stop-color="#B3F243"/>
</linearGradient>
<linearGradient id="paint5_linear_41_22" x1="101.615" y1="101.323" x2="132.16" y2="147.552" gradientUnits="userSpaceOnUse">
<stop stop-color="#FFFC05"/>
<stop offset="1" stop-color="#8B6D13"/>
</linearGradient>
</defs>
</svg>
