<svg width="188" height="181" viewBox="0 0 188 181" fill="none" xmlns="http://www.w3.org/2000/svg">
<g filter="url(#filter0_d_94_9)">
<path d="M93.5293 2.5C141.504 2.5 180.559 39.9701 180.559 86.3887C180.558 132.807 141.504 170.276 93.5293 170.276C45.5546 170.276 6.50026 132.807 6.5 86.3887C6.5 39.9702 45.5544 2.50011 93.5293 2.5Z" fill="url(#paint0_linear_94_9)" stroke="white" stroke-width="5"/>
<path d="M93.5293 8.5C138.407 8.5 174.559 43.4959 174.559 86.3887C174.558 129.281 138.407 164.276 93.5293 164.276C48.6521 164.276 12.5003 129.281 12.5 86.3887C12.5 43.496 48.6519 8.50011 93.5293 8.5Z" fill="url(#paint1_linear_94_9)" stroke="black" stroke-width="7"/>
<g filter="url(#filter1_d_94_9)">
<path d="M140.629 83.0673C142.288 84.2647 142.288 86.7352 140.629 87.9327L73.7556 136.195C71.7715 137.626 69 136.209 69 133.762V37.2381C69 34.7913 71.7715 33.3736 73.7556 34.8055L140.629 83.0673Z" fill="url(#paint2_linear_94_9)"/>
<path d="M140.044 83.8779C141.15 84.6762 141.15 86.3238 140.044 87.1221L73.1709 135.384C71.8482 136.338 70 135.393 70 133.762V37.2383C70 35.6071 71.8482 34.6616 73.1709 35.6162L140.044 83.8779Z" stroke="black" stroke-width="2"/>
</g>
</g>
<defs>
<filter id="filter0_d_94_9" x="0" y="0" width="187.059" height="180.776" filterUnits="userSpaceOnUse" color-interpolation-filters="sRGB">
<feFlood flood-opacity="0" result="BackgroundImageFix"/>
<feColorMatrix in="SourceAlpha" type="matrix" values="0 0 0 0 0 0 0 0 0 0 0 0 0 0 0 0 0 0 127 0" result="hardAlpha"/>
<feOffset dy="4"/>
<feGaussianBlur stdDeviation="2"/>
<feComposite in2="hardAlpha" operator="out"/>
<feColorMatrix type="matrix" values="0 0 0 0 0 0 0 0 0 0 0 0 0 0 0 0 0 0 0.25 0"/>
<feBlend mode="normal" in2="BackgroundImageFix" result="effect1_dropShadow_94_9"/>
<feBlend mode="normal" in="SourceGraphic" in2="effect1_dropShadow_94_9" result="shape"/>
</filter>
<filter id="filter1_d_94_9" x="65" y="34.2328" width="80.8735" height="110.534" filterUnits="userSpaceOnUse" color-interpolation-filters="sRGB">
<feFlood flood-opacity="0" result="BackgroundImageFix"/>
<feColorMatrix in="SourceAlpha" type="matrix" values="0 0 0 0 0 0 0 0 0 0 0 0 0 0 0 0 0 0 127 0" result="hardAlpha"/>
<feOffset dy="4"/>
<feGaussianBlur stdDeviation="2"/>
<feComposite in2="hardAlpha" operator="out"/>
<feColorMatrix type="matrix" values="0 0 0 0 0 0 0 0 0 0 0 0 0 0 0 0 0 0 0.37 0"/>
<feBlend mode="normal" in2="BackgroundImageFix" result="effect1_dropShadow_94_9"/>
<feBlend mode="normal" in="SourceGraphic" in2="effect1_dropShadow_94_9" result="shape"/>
</filter>
<linearGradient id="paint0_linear_94_9" x1="93.1636" y1="5" x2="93.1636" y2="167.776" gradientUnits="userSpaceOnUse">
<stop stop-color="#BEF448"/>
<stop offset="0.310072" stop-color="#65BE1E"/>
</linearGradient>
<linearGradient id="paint1_linear_94_9" x1="93.1636" y1="5" x2="93.1636" y2="167.776" gradientUnits="userSpaceOnUse">
<stop stop-color="#BEF448"/>
<stop offset="0.310072" stop-color="#65BE1E"/>
</linearGradient>
<linearGradient id="paint2_linear_94_9" x1="90" y1="78" x2="139.373" y2="137.781" gradientUnits="userSpaceOnUse">
<stop stop-color="#FFFC05"/>
<stop offset="1" stop-color="#8B6D13"/>
</linearGradient>
</defs>
</svg>
