<svg width="214" height="214" viewBox="0 0 214 214" fill="none" xmlns="http://www.w3.org/2000/svg">
<rect x="132.839" y="19.7914" width="63.622" height="69.2838" rx="3" fill="url(#paint0_linear_96_47)" stroke="black" stroke-width="2"/>
<rect x="20.1039" y="19.7914" width="58.5742" height="69.2838" rx="3" fill="url(#paint1_linear_96_47)" stroke="black" stroke-width="2"/>
<rect x="196.461" y="192.761" width="63.622" height="66.0436" rx="3" transform="rotate(-180 196.461 192.761)" fill="url(#paint2_linear_96_47)" stroke="black" stroke-width="2"/>
<rect x="80.3607" y="192.761" width="61.9394" height="66.0436" rx="3" transform="rotate(-180 80.3607 192.761)" fill="url(#paint3_linear_96_47)" stroke="black" stroke-width="2"/>
<path d="M126.282 1.09998H83.9561C80.311 1.09998 77.3561 4.0549 77.3561 7.69998V82.179C77.3561 85.8241 74.4012 88.779 70.7561 88.779H7.69998C4.0549 88.779 1.09998 91.7339 1.09998 95.379V120.672C1.09998 124.317 4.0549 127.272 7.69998 127.272H70.7561C74.4012 127.272 77.3561 130.227 77.3561 133.872V205.5C77.3561 209.145 80.311 212.1 83.9561 212.1H126.282C129.928 212.1 132.882 209.145 132.882 205.5V133.872C132.882 130.227 135.837 127.272 139.482 127.272H205.5C209.145 127.272 212.1 124.317 212.1 120.672V95.379C212.1 91.734 209.145 88.779 205.5 88.779H139.482C135.837 88.779 132.882 85.8241 132.882 82.179V7.69998C132.882 4.0549 129.928 1.09998 126.282 1.09998Z" fill="url(#paint4_linear_96_47)" stroke="black" stroke-width="2.2"/>
<path fill-rule="evenodd" clip-rule="evenodd" d="M146.638 66.1H65.1V147.638H105.869H146.638V66.1ZM134.713 97.9C135.632 94.0452 132.054 88.9195 127.069 89.761C122.664 90.5046 121.808 94.4757 122.483 97.9C122.988 100.466 123.792 102.9 127.069 103.535C131.082 104.312 133.968 101.026 134.713 97.9ZM87.5795 89.761C82.4916 88.9195 78.839 94.0452 79.7769 97.9C80.5374 101.026 83.4839 104.312 87.5795 103.535C90.9242 102.9 91.7447 100.466 92.261 97.9C92.9501 94.4757 92.076 90.5046 87.5795 89.761ZM127.069 122.362H87.5795V132.146H127.069V122.362Z" fill="url(#paint5_linear_96_47)" stroke="black" stroke-width="2" stroke-linecap="round"/>
<defs>
<linearGradient id="paint0_linear_96_47" x1="164.65" y1="18.7914" x2="164.65" y2="90.0752" gradientUnits="userSpaceOnUse">
<stop stop-color="#51FFE7"/>
<stop offset="1" stop-color="#1FB8B3"/>
</linearGradient>
<linearGradient id="paint1_linear_96_47" x1="49.391" y1="18.7914" x2="49.391" y2="90.0752" gradientUnits="userSpaceOnUse">
<stop stop-color="#51FFE7"/>
<stop offset="1" stop-color="#1FB8B3"/>
</linearGradient>
<linearGradient id="paint2_linear_96_47" x1="230.272" y1="193.761" x2="230.272" y2="261.804" gradientUnits="userSpaceOnUse">
<stop stop-color="#51FFE7"/>
<stop offset="1" stop-color="#1FB8B3"/>
</linearGradient>
<linearGradient id="paint3_linear_96_47" x1="113.33" y1="193.761" x2="113.33" y2="261.804" gradientUnits="userSpaceOnUse">
<stop stop-color="#51FFE7"/>
<stop offset="1" stop-color="#1FB8B3"/>
</linearGradient>
<linearGradient id="paint4_linear_96_47" x1="106.6" y1="1.09998" x2="106.6" y2="212.1" gradientUnits="userSpaceOnUse">
<stop offset="0.475962" stop-color="#7CE62E"/>
<stop offset="0.576923" stop-color="#B3F243"/>
</linearGradient>
<linearGradient id="paint5_linear_96_47" x1="77.3307" y1="66.1" x2="133.592" y2="147.638" gradientUnits="userSpaceOnUse">
<stop offset="0.418269" stop-color="#FFD606"/>
<stop offset="1" stop-color="#998004"/>
</linearGradient>
</defs>
</svg>
